<svg width="224" height="297" xmlns="http://www.w3.org/2000/svg"><defs><filter x="-12.5%" y="-7.6%" width="125.5%" height="118.3%" filterUnits="objectBoundingBox" id="a"><feOffset dy="4" in="SourceAlpha" result="shadowOffsetOuter1"/><feGaussianBlur stdDeviation="7.5" in="shadowOffsetOuter1" result="shadowBlurOuter1"/><feColorMatrix values="0 0 0 0 0 0 0 0 0 0 0 0 0 0 0 0 0 0 0.2 0" in="shadowBlurOuter1" result="shadowMatrixOuter1"/><feMerge><feMergeNode in="shadowMatrixOuter1"/><feMergeNode in="SourceGraphic"/></feMerge></filter></defs><g transform="translate(14 10)" fill="none" fill-rule="evenodd"><g filter="url(#a)" fill-rule="nonzero"><path d="M.33 215.946l3.35-3.066L80.306 67.633 46.255 3.318c-2.83-5.31-10.016-3.956-10.945 1.988L.33 215.946z" fill="#34C6ED"/><path d="M127.944 87.077L103.36 36.509c-2.334-4.8-8.005-5.303-10.315-.489l-14.1 29.315 24.415 48.94 24.585-27.198z" fill="#34C6ED"/><path fill="#17ADD6" d="M.226 215.786l3.913-1.498 98.063-98.796 1.242-3.42L78.93 65.3z"/><path d="M196 215.702l-25.528-157.5c-.798-4.929-6.833-6.876-10.354-3.344L.298 215.702l88.232 49.94a18.52 18.52 0 0 0 18.077.004L196 215.702z" fill="#61DAFB"/></g><path d="M175 180.51c0-6.175-7.632-12.026-19.334-15.654 2.7-12.083 1.5-21.696-3.788-24.773-1.219-.722-2.644-1.064-4.2-1.064v4.236c.862 0 1.556.171 2.137.494 2.55 1.482 3.657 7.124 2.794 14.381-.206 1.786-.543 3.667-.956 5.586-3.675-.912-7.688-1.615-11.908-2.071-2.531-3.515-5.157-6.706-7.8-9.499 6.112-5.756 11.85-8.91 15.751-8.91V139c-5.157 0-11.908 3.724-18.734 10.183-6.825-6.421-13.576-10.107-18.733-10.107v4.236c3.881 0 9.639 3.135 15.752 8.853a89.48 89.48 0 0 0-7.745 9.48c-4.238.456-8.251 1.159-11.927 2.09-.43-1.9-.75-3.743-.975-5.51-.881-7.257.207-12.899 2.738-14.4.563-.342 1.294-.494 2.157-.494v-4.236c-1.576 0-3 .342-4.238 1.064-5.27 3.077-6.451 12.671-3.732 24.716C90.595 168.522 83 174.355 83 180.509c0 6.175 7.632 12.026 19.334 15.654-2.7 12.083-1.5 21.696 3.788 24.773 1.219.722 2.644 1.064 4.22 1.064 5.156 0 11.907-3.724 18.733-10.183 6.826 6.421 13.577 10.107 18.734 10.107 1.575 0 3-.342 4.238-1.064 5.27-3.077 6.45-12.671 3.732-24.716 11.626-3.628 19.221-9.48 19.221-15.635zm-24.416-12.672a86.33 86.33 0 0 1-2.531 7.504 90.278 90.278 0 0 0-2.457-4.56 103.035 103.035 0 0 0-2.7-4.445c2.663.4 5.232.893 7.688 1.501zm-8.588 20.232c-1.463 2.565-2.963 4.997-4.52 7.258-2.794.247-5.626.38-8.476.38-2.832 0-5.663-.133-8.439-.361a104.915 104.915 0 0 1-4.538-7.22 99.422 99.422 0 0 1-3.9-7.56 99.543 99.543 0 0 1 3.881-7.58c1.463-2.565 2.963-4.997 4.52-7.258a96.324 96.324 0 0 1 8.476-.38c2.832 0 5.663.133 8.439.361a104.915 104.915 0 0 1 4.538 7.22 99.422 99.422 0 0 1 3.9 7.56 106.88 106.88 0 0 1-3.881 7.58zm6.057-2.47a82.139 82.139 0 0 1 2.587 7.562 83.198 83.198 0 0 1-7.726 1.52 105.223 105.223 0 0 0 2.7-4.503c.863-1.52 1.67-3.058 2.439-4.578zm-19.015 20.271a78.033 78.033 0 0 1-5.214-6.08c1.688.077 3.413.134 5.157.134 1.763 0 3.507-.038 5.213-.133a73.896 73.896 0 0 1-5.156 6.08zm-13.952-11.19a83.647 83.647 0 0 1-7.689-1.5 86.33 86.33 0 0 1 2.532-7.504 90.278 90.278 0 0 0 2.456 4.56c.882 1.519 1.782 3 2.7 4.445zm13.858-39.533a78.034 78.034 0 0 1 5.213 6.08 114.593 114.593 0 0 0-5.157-.134c-1.763 0-3.507.038-5.213.133a73.896 73.896 0 0 1 5.157-6.08zm-13.877 11.19a105.221 105.221 0 0 0-5.138 9.061 82.139 82.139 0 0 1-2.588-7.56 90.024 90.024 0 0 1 7.726-1.502zm-16.971 23.784c-6.639-2.868-10.933-6.63-10.933-9.613 0-2.982 4.294-6.763 10.933-9.612 1.613-.703 3.375-1.33 5.194-1.919 1.07 3.724 2.476 7.599 4.22 11.57-1.726 3.951-3.113 7.807-4.163 11.512a56.493 56.493 0 0 1-5.251-1.938zm10.089 27.148c-2.55-1.482-3.657-7.124-2.794-14.381.206-1.786.543-3.667.956-5.586 3.675.912 7.688 1.615 11.908 2.071 2.531 3.515 5.157 6.706 7.8 9.499-6.112 5.756-11.85 8.91-15.751 8.91-.844-.02-1.557-.19-2.12-.513zm44.48-14.476c.882 7.257-.206 12.899-2.737 14.4-.563.342-1.294.494-2.157.494-3.881 0-9.639-3.135-15.752-8.853a89.48 89.48 0 0 0 7.745-9.48c4.238-.456 8.251-1.159 11.927-2.09.43 1.919.768 3.762.975 5.529zm7.22-12.672c-1.612.703-3.375 1.33-5.194 1.919-1.069-3.724-2.475-7.599-4.22-11.57 1.726-3.951 3.114-7.807 4.164-11.512a58.98 58.98 0 0 1 5.27 1.938c6.638 2.868 10.932 6.63 10.932 9.612-.019 2.983-4.313 6.764-10.952 9.613z" fill="#FFF" fill-rule="nonzero"/><ellipse fill="#FFF" cx="130.5" cy="180" rx="6.5" ry="6"/></g></svg>